# xmcd
#
# Track frame offsets: 
#        150
#        10482
#        55337
#        119107
#        148781
#        160625
#        180355
#        194095
#        207581
#        230925
#        248452
#        284672
#
# Disc length: 4017 seconds
#
# Revision: 0
# Processed by: cddbd v1.4PL0 Copyright (c) Steve Scherf et al.
# Submitted via: ExactAudioCopy v0.90b4
#
DISCID=bd0faf0c
DTITLE=Van Morrison - Don't Look Back, disc 1
DYEAR=1974
DGENRE=Celtic
TTITLE0=Introduction
TTITLE1=Instrumental
TTITLE2=Orbital Transfer
TTITLE3=I've Been Working
TTITLE4=Warm Love
TTITLE5=Don't Look Back
TTITLE6=Help Me
TTITLE7=Brown Eyed Girl
TTITLE8=Moondance
TTITLE9=I Believe To My Soul
TTITLE10=Listen To The Lion
TTITLE11=These Dreams Of You
EXTD=
EXTT0=
EXTT1=
EXTT2=
EXTT3=
EXTT4=
EXTT5=
EXTT6=
EXTT7=
EXTT8=
EXTT9=
EXTT10=
EXTT11=
PLAYORDER=
